<svg width="728" height="407" viewBox="0 0 728 407" fill="none" xmlns="http://www.w3.org/2000/svg">
<rect width="728" height="407" fill="black"/>
<rect width="728" height="407" fill="black"/>
<path d="M611.115 297.33H603.254V305H597.539V286.051H611.115V289.852H603.254V293.516H611.115V297.33ZM628.998 304.303C628.278 304.585 627.613 304.813 627.002 304.986C626.391 305.16 625.658 305.246 624.801 305.246C623.99 305.246 623.424 305.105 623.105 304.822C622.786 304.531 622.559 304.18 622.422 303.77C621.893 304.198 621.305 304.553 620.658 304.836C620.011 305.109 619.163 305.246 618.115 305.246C617.104 305.246 616.283 305.073 615.654 304.727C615.035 304.371 614.597 303.929 614.342 303.4C614.096 302.863 613.973 302.311 613.973 301.746C613.973 300.889 614.187 300.183 614.615 299.627C615.053 299.062 615.636 298.602 616.365 298.246C617.094 297.891 618.061 297.521 619.264 297.139C619.947 296.92 620.462 296.756 620.809 296.646C621.164 296.528 621.428 296.437 621.602 296.373C621.775 296.309 621.957 296.227 622.148 296.127C622.148 295.452 622.012 294.924 621.738 294.541C621.465 294.158 620.872 293.967 619.961 293.967C618.885 293.967 617.887 294.204 616.967 294.678C616.046 295.152 615.203 295.762 614.438 296.51V292.736C615.048 292.299 615.709 291.943 616.42 291.67C617.131 291.387 617.874 291.178 618.648 291.041C619.423 290.904 620.207 290.836 621 290.836C623.014 290.836 624.527 291.228 625.539 292.012C626.56 292.786 627.07 293.857 627.07 295.225V300.598C627.07 301.108 627.116 301.491 627.207 301.746C627.307 301.992 627.485 302.115 627.74 302.115C628.05 302.115 628.469 301.983 628.998 301.719V304.303ZM622.148 301.637V298.342C620.982 298.816 620.13 299.244 619.592 299.627C619.054 300.001 618.785 300.511 618.785 301.158C618.785 301.623 618.917 301.979 619.182 302.225C619.455 302.471 619.77 302.594 620.125 302.594C620.462 302.594 620.795 302.503 621.123 302.32C621.46 302.129 621.802 301.901 622.148 301.637ZM635.738 305H630.803V286.051H635.738V305ZM650.025 300.939C650.025 302.215 649.556 303.255 648.617 304.057C647.688 304.85 646.302 305.246 644.461 305.246C643.431 305.246 642.515 305.155 641.713 304.973C640.911 304.781 640.036 304.512 639.088 304.166V300.666C639.917 301.14 640.637 301.5 641.248 301.746C641.859 301.992 642.529 302.115 643.258 302.115C644.488 302.115 645.104 301.778 645.104 301.104C645.104 300.876 645.012 300.675 644.83 300.502C644.657 300.32 644.347 300.119 643.9 299.9C643.463 299.673 642.875 299.404 642.137 299.094C641.225 298.693 640.451 298.155 639.812 297.48C639.174 296.806 638.855 295.981 638.855 295.006C638.855 294.313 639.065 293.648 639.484 293.01C639.913 292.372 640.555 291.852 641.412 291.451C642.269 291.041 643.303 290.836 644.516 290.836C644.807 290.836 645.176 290.859 645.623 290.904C646.079 290.941 646.648 291.046 647.332 291.219C648.025 291.392 648.681 291.638 649.301 291.957V295.361C649.009 295.188 648.763 295.042 648.562 294.924C648.371 294.805 648.111 294.673 647.783 294.527C647.455 294.382 647.068 294.254 646.621 294.145C646.184 294.026 645.732 293.967 645.268 293.967C644.702 293.967 644.315 294.076 644.105 294.295C643.896 294.514 643.791 294.732 643.791 294.951C643.791 295.179 643.9 295.393 644.119 295.594C644.338 295.785 644.826 296.027 645.582 296.318C646.676 296.738 647.551 297.171 648.207 297.617C648.863 298.055 649.328 298.538 649.602 299.066C649.884 299.595 650.025 300.219 650.025 300.939ZM666.979 299.23H657.176C657.367 300.078 657.837 300.771 658.584 301.309C659.331 301.846 660.179 302.115 661.127 302.115C662.786 302.115 664.618 301.65 666.623 300.721V303.77C665.903 304.143 665.028 304.485 663.998 304.795C662.977 305.096 661.674 305.246 660.088 305.246C658.374 305.246 656.916 304.927 655.713 304.289C654.51 303.651 653.607 302.785 653.006 301.691C652.413 300.598 652.117 299.358 652.117 297.973C652.117 296.605 652.413 295.384 653.006 294.309C653.607 293.224 654.51 292.376 655.713 291.766C656.916 291.146 658.374 290.836 660.088 290.836C661.218 290.836 662.307 291.082 663.355 291.574C664.413 292.057 665.279 292.855 665.953 293.967C666.637 295.07 666.979 296.496 666.979 298.246V299.23ZM662.357 296.797C662.357 295.904 662.134 295.193 661.688 294.664C661.25 294.126 660.617 293.857 659.787 293.857C658.967 293.857 658.301 294.131 657.791 294.678C657.29 295.215 657.039 295.922 657.039 296.797H662.357Z" fill="#E71010"/>
<path d="M590.156 337H585.07L575.24 326.445V337H569.58V318.051H574.652L584.455 328.551V318.051H590.156V337ZM608.395 331.23H598.592C598.783 332.078 599.253 332.771 600 333.309C600.747 333.846 601.595 334.115 602.543 334.115C604.202 334.115 606.034 333.65 608.039 332.721V335.77C607.319 336.143 606.444 336.485 605.414 336.795C604.393 337.096 603.09 337.246 601.504 337.246C599.79 337.246 598.332 336.927 597.129 336.289C595.926 335.651 595.023 334.785 594.422 333.691C593.829 332.598 593.533 331.358 593.533 329.973C593.533 328.605 593.829 327.384 594.422 326.309C595.023 325.224 595.926 324.376 597.129 323.766C598.332 323.146 599.79 322.836 601.504 322.836C602.634 322.836 603.723 323.082 604.771 323.574C605.829 324.057 606.695 324.855 607.369 325.967C608.053 327.07 608.395 328.496 608.395 330.246V331.23ZM603.773 328.797C603.773 327.904 603.55 327.193 603.104 326.664C602.666 326.126 602.033 325.857 601.203 325.857C600.383 325.857 599.717 326.131 599.207 326.678C598.706 327.215 598.455 327.922 598.455 328.797H603.773ZM624.828 326.049H622.395C623.251 326.796 623.68 327.712 623.68 328.797C623.68 329.371 623.557 329.923 623.311 330.451C623.074 330.98 622.718 331.449 622.244 331.859C621.779 332.27 621.201 332.607 620.508 332.871C619.824 333.126 619.04 333.281 618.156 333.336C617.017 333.382 616.447 333.687 616.447 334.252C616.447 334.471 616.52 334.63 616.666 334.73C616.812 334.831 617.04 334.908 617.35 334.963C617.669 335.008 618.202 335.063 618.949 335.127C619.797 335.2 620.585 335.327 621.314 335.51C622.044 335.692 622.723 336.075 623.352 336.658C623.98 337.242 624.295 338.076 624.295 339.16C624.295 340.026 624.058 340.792 623.584 341.457C623.119 342.122 622.363 342.642 621.314 343.016C620.266 343.389 618.881 343.576 617.158 343.576C614.679 343.576 612.856 343.243 611.689 342.578C610.532 341.913 609.953 341.024 609.953 339.912C609.953 339.611 610.026 339.265 610.172 338.873C610.327 338.481 610.646 338.103 611.129 337.738C611.621 337.374 612.332 337.128 613.262 337C612.934 336.882 612.651 336.654 612.414 336.316C612.177 335.97 612.059 335.61 612.059 335.236C612.059 334.753 612.223 334.275 612.551 333.801C612.888 333.327 613.43 333.021 614.178 332.885C613.139 332.611 612.241 332.096 611.484 331.34C610.728 330.583 610.35 329.604 610.35 328.4C610.35 327.489 610.523 326.691 610.869 326.008C611.225 325.324 611.712 324.768 612.332 324.34C612.952 323.911 613.672 323.597 614.492 323.396C615.312 323.187 616.21 323.082 617.186 323.082H624.828V326.049ZM619.387 328.4C619.387 327.699 619.145 327.138 618.662 326.719C618.188 326.29 617.655 326.076 617.062 326.076C616.306 326.076 615.709 326.331 615.271 326.842C614.843 327.352 614.629 327.89 614.629 328.455C614.629 328.847 614.72 329.212 614.902 329.549C615.094 329.886 615.358 330.16 615.695 330.369C616.042 330.57 616.452 330.67 616.926 330.67C617.637 330.67 618.225 330.447 618.689 330C619.154 329.553 619.387 329.02 619.387 328.4ZM620.371 339.598C620.371 338.987 620.043 338.59 619.387 338.408C618.74 338.235 618.07 338.148 617.377 338.148C616.238 338.148 615.413 338.267 614.902 338.504C614.401 338.75 614.15 339.137 614.15 339.666C614.15 340.705 615.199 341.225 617.295 341.225C618.234 341.225 618.981 341.088 619.537 340.814C620.093 340.55 620.371 340.145 620.371 339.598ZM641.453 336.303C640.733 336.585 640.068 336.813 639.457 336.986C638.846 337.16 638.113 337.246 637.256 337.246C636.445 337.246 635.88 337.105 635.561 336.822C635.242 336.531 635.014 336.18 634.877 335.77C634.348 336.198 633.76 336.553 633.113 336.836C632.466 337.109 631.618 337.246 630.57 337.246C629.559 337.246 628.738 337.073 628.109 336.727C627.49 336.371 627.052 335.929 626.797 335.4C626.551 334.863 626.428 334.311 626.428 333.746C626.428 332.889 626.642 332.183 627.07 331.627C627.508 331.062 628.091 330.602 628.82 330.246C629.549 329.891 630.516 329.521 631.719 329.139C632.402 328.92 632.917 328.756 633.264 328.646C633.619 328.528 633.883 328.437 634.057 328.373C634.23 328.309 634.412 328.227 634.604 328.127C634.604 327.452 634.467 326.924 634.193 326.541C633.92 326.158 633.327 325.967 632.416 325.967C631.34 325.967 630.342 326.204 629.422 326.678C628.501 327.152 627.658 327.762 626.893 328.51V324.736C627.503 324.299 628.164 323.943 628.875 323.67C629.586 323.387 630.329 323.178 631.104 323.041C631.878 322.904 632.662 322.836 633.455 322.836C635.469 322.836 636.982 323.228 637.994 324.012C639.015 324.786 639.525 325.857 639.525 327.225V332.598C639.525 333.108 639.571 333.491 639.662 333.746C639.762 333.992 639.94 334.115 640.195 334.115C640.505 334.115 640.924 333.983 641.453 333.719V336.303ZM634.604 333.637V330.342C633.437 330.816 632.585 331.244 632.047 331.627C631.509 332.001 631.24 332.511 631.24 333.158C631.24 333.623 631.372 333.979 631.637 334.225C631.91 334.471 632.225 334.594 632.58 334.594C632.917 334.594 633.25 334.503 633.578 334.32C633.915 334.129 634.257 333.901 634.604 333.637ZM653.99 336.193C653.48 336.439 652.773 336.676 651.871 336.904C650.978 337.132 650.121 337.246 649.301 337.246C645.755 337.246 643.982 335.514 643.982 332.051V326.5H641.754V325.639L648.357 318.912H648.918V323.082H653.621V326.5H648.918V330.957C648.918 331.477 648.95 331.896 649.014 332.215C649.077 332.534 649.255 332.803 649.547 333.021C649.848 333.231 650.299 333.336 650.9 333.336C651.684 333.336 652.714 333.008 653.99 332.352V336.193ZM660.949 319.869C660.949 320.443 660.744 320.931 660.334 321.332C659.924 321.733 659.436 321.934 658.871 321.934C658.488 321.934 658.137 321.842 657.818 321.66C657.508 321.478 657.262 321.232 657.08 320.922C656.898 320.603 656.807 320.252 656.807 319.869C656.807 319.304 657.007 318.816 657.408 318.406C657.809 317.996 658.297 317.791 658.871 317.791C659.436 317.791 659.924 317.996 660.334 318.406C660.744 318.816 660.949 319.304 660.949 319.869ZM661.346 337H656.41V323.082H661.346V337ZM679.42 323.082L673.09 337H669.453L663.26 323.082H668.551L671.436 330.369L674.635 323.082H679.42ZM694.938 331.23H685.135C685.326 332.078 685.796 332.771 686.543 333.309C687.29 333.846 688.138 334.115 689.086 334.115C690.745 334.115 692.577 333.65 694.582 332.721V335.77C693.862 336.143 692.987 336.485 691.957 336.795C690.936 337.096 689.633 337.246 688.047 337.246C686.333 337.246 684.875 336.927 683.672 336.289C682.469 335.651 681.566 334.785 680.965 333.691C680.372 332.598 680.076 331.358 680.076 329.973C680.076 328.605 680.372 327.384 680.965 326.309C681.566 325.224 682.469 324.376 683.672 323.766C684.875 323.146 686.333 322.836 688.047 322.836C689.177 322.836 690.266 323.082 691.314 323.574C692.372 324.057 693.238 324.855 693.912 325.967C694.596 327.07 694.938 328.496 694.938 330.246V331.23ZM690.316 328.797C690.316 327.904 690.093 327.193 689.646 326.664C689.209 326.126 688.576 325.857 687.746 325.857C686.926 325.857 686.26 326.131 685.75 326.678C685.249 327.215 684.998 327.922 684.998 328.797H690.316Z" fill="white"/>
<path d="M344.615 297.33H336.754V305H331.039V286.051H344.615V289.852H336.754V293.516H344.615V297.33ZM362.498 304.303C361.778 304.585 361.113 304.813 360.502 304.986C359.891 305.16 359.158 305.246 358.301 305.246C357.49 305.246 356.924 305.105 356.605 304.822C356.286 304.531 356.059 304.18 355.922 303.77C355.393 304.198 354.805 304.553 354.158 304.836C353.511 305.109 352.663 305.246 351.615 305.246C350.604 305.246 349.783 305.073 349.154 304.727C348.535 304.371 348.097 303.929 347.842 303.4C347.596 302.863 347.473 302.311 347.473 301.746C347.473 300.889 347.687 300.183 348.115 299.627C348.553 299.062 349.136 298.602 349.865 298.246C350.594 297.891 351.561 297.521 352.764 297.139C353.447 296.92 353.962 296.756 354.309 296.646C354.664 296.528 354.928 296.437 355.102 296.373C355.275 296.309 355.457 296.227 355.648 296.127C355.648 295.452 355.512 294.924 355.238 294.541C354.965 294.158 354.372 293.967 353.461 293.967C352.385 293.967 351.387 294.204 350.467 294.678C349.546 295.152 348.703 295.762 347.938 296.51V292.736C348.548 292.299 349.209 291.943 349.92 291.67C350.631 291.387 351.374 291.178 352.148 291.041C352.923 290.904 353.707 290.836 354.5 290.836C356.514 290.836 358.027 291.228 359.039 292.012C360.06 292.786 360.57 293.857 360.57 295.225V300.598C360.57 301.108 360.616 301.491 360.707 301.746C360.807 301.992 360.985 302.115 361.24 302.115C361.55 302.115 361.969 301.983 362.498 301.719V304.303ZM355.648 301.637V298.342C354.482 298.816 353.63 299.244 353.092 299.627C352.554 300.001 352.285 300.511 352.285 301.158C352.285 301.623 352.417 301.979 352.682 302.225C352.955 302.471 353.27 302.594 353.625 302.594C353.962 302.594 354.295 302.503 354.623 302.32C354.96 302.129 355.302 301.901 355.648 301.637ZM369.238 305H364.303V286.051H369.238V305ZM383.525 300.939C383.525 302.215 383.056 303.255 382.117 304.057C381.188 304.85 379.802 305.246 377.961 305.246C376.931 305.246 376.015 305.155 375.213 304.973C374.411 304.781 373.536 304.512 372.588 304.166V300.666C373.417 301.14 374.137 301.5 374.748 301.746C375.359 301.992 376.029 302.115 376.758 302.115C377.988 302.115 378.604 301.778 378.604 301.104C378.604 300.876 378.512 300.675 378.33 300.502C378.157 300.32 377.847 300.119 377.4 299.9C376.963 299.673 376.375 299.404 375.637 299.094C374.725 298.693 373.951 298.155 373.312 297.48C372.674 296.806 372.355 295.981 372.355 295.006C372.355 294.313 372.565 293.648 372.984 293.01C373.413 292.372 374.055 291.852 374.912 291.451C375.769 291.041 376.803 290.836 378.016 290.836C378.307 290.836 378.676 290.859 379.123 290.904C379.579 290.941 380.148 291.046 380.832 291.219C381.525 291.392 382.181 291.638 382.801 291.957V295.361C382.509 295.188 382.263 295.042 382.062 294.924C381.871 294.805 381.611 294.673 381.283 294.527C380.955 294.382 380.568 294.254 380.121 294.145C379.684 294.026 379.232 293.967 378.768 293.967C378.202 293.967 377.815 294.076 377.605 294.295C377.396 294.514 377.291 294.732 377.291 294.951C377.291 295.179 377.4 295.393 377.619 295.594C377.838 295.785 378.326 296.027 379.082 296.318C380.176 296.738 381.051 297.171 381.707 297.617C382.363 298.055 382.828 298.538 383.102 299.066C383.384 299.595 383.525 300.219 383.525 300.939ZM400.479 299.23H390.676C390.867 300.078 391.337 300.771 392.084 301.309C392.831 301.846 393.679 302.115 394.627 302.115C396.286 302.115 398.118 301.65 400.123 300.721V303.77C399.403 304.143 398.528 304.485 397.498 304.795C396.477 305.096 395.174 305.246 393.588 305.246C391.874 305.246 390.416 304.927 389.213 304.289C388.01 303.651 387.107 302.785 386.506 301.691C385.913 300.598 385.617 299.358 385.617 297.973C385.617 296.605 385.913 295.384 386.506 294.309C387.107 293.224 388.01 292.376 389.213 291.766C390.416 291.146 391.874 290.836 393.588 290.836C394.718 290.836 395.807 291.082 396.855 291.574C397.913 292.057 398.779 292.855 399.453 293.967C400.137 295.07 400.479 296.496 400.479 298.246V299.23ZM395.857 296.797C395.857 295.904 395.634 295.193 395.188 294.664C394.75 294.126 394.117 293.857 393.287 293.857C392.467 293.857 391.801 294.131 391.291 294.678C390.79 295.215 390.539 295.922 390.539 296.797H395.857Z" fill="#E71010"/>
<path d="M327.184 324.012C327.184 324.714 327.061 325.402 326.814 326.076C326.577 326.742 326.19 327.366 325.652 327.949C325.115 328.523 324.385 328.993 323.465 329.357C322.553 329.713 321.478 329.891 320.238 329.891H316.492V337H310.777V318.051H320.238C321.478 318.051 322.553 318.233 323.465 318.598C324.385 318.962 325.115 319.436 325.652 320.02C326.19 320.603 326.577 321.236 326.814 321.92C327.061 322.604 327.184 323.301 327.184 324.012ZM321.359 324.039C321.359 323.137 321.09 322.521 320.553 322.193C320.024 321.856 319.072 321.688 317.695 321.688H316.492V326.254H317.723C318.671 326.254 319.4 326.195 319.91 326.076C320.421 325.958 320.79 325.739 321.018 325.42C321.245 325.101 321.359 324.641 321.359 324.039ZM344.096 330.027C344.096 331.413 343.795 332.648 343.193 333.732C342.592 334.817 341.689 335.674 340.486 336.303C339.292 336.932 337.834 337.246 336.111 337.246C334.389 337.246 332.926 336.932 331.723 336.303C330.529 335.674 329.631 334.817 329.029 333.732C328.437 332.648 328.141 331.413 328.141 330.027C328.141 328.979 328.305 328.027 328.633 327.17C328.97 326.313 329.476 325.557 330.15 324.9C330.834 324.235 331.673 323.725 332.666 323.369C333.66 323.014 334.808 322.836 336.111 322.836C337.424 322.836 338.581 323.018 339.584 323.383C340.596 323.738 341.43 324.24 342.086 324.887C342.751 325.534 343.253 326.29 343.59 327.156C343.927 328.022 344.096 328.979 344.096 330.027ZM338.914 330.027C338.914 328.924 338.673 328.063 338.189 327.443C337.715 326.814 337.023 326.5 336.111 326.5C335.209 326.5 334.516 326.814 334.033 327.443C333.559 328.063 333.322 328.924 333.322 330.027C333.322 331.121 333.564 331.987 334.047 332.625C334.53 333.263 335.218 333.582 336.111 333.582C337.023 333.582 337.715 333.268 338.189 332.639C338.673 332.001 338.914 331.13 338.914 330.027ZM357.549 332.939C357.549 334.215 357.079 335.255 356.141 336.057C355.211 336.85 353.826 337.246 351.984 337.246C350.954 337.246 350.038 337.155 349.236 336.973C348.434 336.781 347.559 336.512 346.611 336.166V332.666C347.441 333.14 348.161 333.5 348.771 333.746C349.382 333.992 350.052 334.115 350.781 334.115C352.012 334.115 352.627 333.778 352.627 333.104C352.627 332.876 352.536 332.675 352.354 332.502C352.18 332.32 351.87 332.119 351.424 331.9C350.986 331.673 350.398 331.404 349.66 331.094C348.749 330.693 347.974 330.155 347.336 329.48C346.698 328.806 346.379 327.981 346.379 327.006C346.379 326.313 346.589 325.648 347.008 325.01C347.436 324.372 348.079 323.852 348.936 323.451C349.792 323.041 350.827 322.836 352.039 322.836C352.331 322.836 352.7 322.859 353.146 322.904C353.602 322.941 354.172 323.046 354.855 323.219C355.548 323.392 356.204 323.638 356.824 323.957V327.361C356.533 327.188 356.286 327.042 356.086 326.924C355.895 326.805 355.635 326.673 355.307 326.527C354.979 326.382 354.591 326.254 354.145 326.145C353.707 326.026 353.256 325.967 352.791 325.967C352.226 325.967 351.839 326.076 351.629 326.295C351.419 326.514 351.314 326.732 351.314 326.951C351.314 327.179 351.424 327.393 351.643 327.594C351.861 327.785 352.349 328.027 353.105 328.318C354.199 328.738 355.074 329.171 355.73 329.617C356.387 330.055 356.852 330.538 357.125 331.066C357.408 331.595 357.549 332.219 357.549 332.939ZM365.014 319.869C365.014 320.443 364.809 320.931 364.398 321.332C363.988 321.733 363.501 321.934 362.936 321.934C362.553 321.934 362.202 321.842 361.883 321.66C361.573 321.478 361.327 321.232 361.145 320.922C360.962 320.603 360.871 320.252 360.871 319.869C360.871 319.304 361.072 318.816 361.473 318.406C361.874 317.996 362.361 317.791 362.936 317.791C363.501 317.791 363.988 317.996 364.398 318.406C364.809 318.816 365.014 319.304 365.014 319.869ZM365.41 337H360.475V323.082H365.41V337ZM379.793 336.193C379.283 336.439 378.576 336.676 377.674 336.904C376.781 337.132 375.924 337.246 375.104 337.246C371.558 337.246 369.785 335.514 369.785 332.051V326.5H367.557V325.639L374.16 318.912H374.721V323.082H379.424V326.5H374.721V330.957C374.721 331.477 374.753 331.896 374.816 332.215C374.88 332.534 375.058 332.803 375.35 333.021C375.65 333.231 376.102 333.336 376.703 333.336C377.487 333.336 378.517 333.008 379.793 332.352V336.193ZM386.752 319.869C386.752 320.443 386.547 320.931 386.137 321.332C385.727 321.733 385.239 321.934 384.674 321.934C384.291 321.934 383.94 321.842 383.621 321.66C383.311 321.478 383.065 321.232 382.883 320.922C382.701 320.603 382.609 320.252 382.609 319.869C382.609 319.304 382.81 318.816 383.211 318.406C383.612 317.996 384.1 317.791 384.674 317.791C385.239 317.791 385.727 317.996 386.137 318.406C386.547 318.816 386.752 319.304 386.752 319.869ZM387.148 337H382.213V323.082H387.148V337ZM405.223 323.082L398.893 337H395.256L389.062 323.082H394.354L397.238 330.369L400.438 323.082H405.223ZM420.74 331.23H410.938C411.129 332.078 411.598 332.771 412.346 333.309C413.093 333.846 413.941 334.115 414.889 334.115C416.548 334.115 418.38 333.65 420.385 332.721V335.77C419.665 336.143 418.79 336.485 417.76 336.795C416.739 337.096 415.436 337.246 413.85 337.246C412.136 337.246 410.678 336.927 409.475 336.289C408.271 335.651 407.369 334.785 406.768 333.691C406.175 332.598 405.879 331.358 405.879 329.973C405.879 328.605 406.175 327.384 406.768 326.309C407.369 325.224 408.271 324.376 409.475 323.766C410.678 323.146 412.136 322.836 413.85 322.836C414.98 322.836 416.069 323.082 417.117 323.574C418.174 324.057 419.04 324.855 419.715 325.967C420.398 327.07 420.74 328.496 420.74 330.246V331.23ZM416.119 328.797C416.119 327.904 415.896 327.193 415.449 326.664C415.012 326.126 414.378 325.857 413.549 325.857C412.729 325.857 412.063 326.131 411.553 326.678C411.051 327.215 410.801 327.922 410.801 328.797H416.119Z" fill="#EF9713"/>
<path d="M67.2012 313.33H59.3398V321H53.625V302.051H67.2012V305.852H59.3398V309.516H67.2012V313.33ZM90.2383 321H84.3867L82.8418 317.158H74.6113L73.0391 321H67.1875L75.5684 302.051H81.8848L90.2383 321ZM81.5293 313.863L78.7539 306.945L75.9512 313.863H81.5293ZM107.15 321H92.7539V302.051H98.4688V316.461H107.15V321ZM122.107 315.49C122.107 316.675 121.802 317.701 121.191 318.566C120.59 319.432 119.747 320.098 118.662 320.562C117.577 321.018 116.333 321.246 114.93 321.246C114.538 321.246 114.055 321.219 113.48 321.164C112.915 321.118 112.159 320.982 111.211 320.754C110.272 320.526 109.292 320.189 108.271 319.742V315.094C109.229 315.686 110.167 316.178 111.088 316.57C112.018 316.962 113.011 317.158 114.068 317.158C115.044 317.158 115.673 316.999 115.955 316.68C116.247 316.352 116.393 316.046 116.393 315.764C116.393 315.253 116.146 314.825 115.654 314.479C115.162 314.123 114.447 313.758 113.508 313.385C112.469 312.947 111.557 312.473 110.773 311.963C109.99 311.443 109.347 310.796 108.846 310.021C108.354 309.247 108.107 308.331 108.107 307.273C108.107 306.253 108.358 305.332 108.859 304.512C109.361 303.682 110.126 303.021 111.156 302.529C112.186 302.037 113.444 301.791 114.93 301.791C115.987 301.791 116.962 301.896 117.855 302.105C118.758 302.306 119.501 302.534 120.084 302.789C120.667 303.044 121.068 303.245 121.287 303.391V307.834C120.512 307.278 119.646 306.781 118.689 306.344C117.742 305.906 116.725 305.688 115.641 305.688C114.93 305.688 114.415 305.824 114.096 306.098C113.777 306.371 113.617 306.708 113.617 307.109C113.617 307.483 113.777 307.807 114.096 308.08C114.415 308.354 114.984 308.686 115.805 309.078C117.263 309.762 118.43 310.377 119.305 310.924C120.18 311.471 120.863 312.104 121.355 312.824C121.857 313.535 122.107 314.424 122.107 315.49ZM140.291 321H126.004V302.051H140.059V305.852H131.719V309.324H139.676V313.139H131.719V317.186H140.291V321Z" fill="#E71010"/>
<path d="M617.732 155.658H610.787V170H605.086V155.658H598.141V151.051H617.732V155.658ZM631.691 156.834L629.873 161.77C629.126 161.059 628.369 160.703 627.604 160.703C626.911 160.703 626.309 160.94 625.799 161.414C625.298 161.879 624.814 162.745 624.35 164.012V170H619.428V156.082H624.35V159.445C624.66 158.616 625.206 157.809 625.99 157.025C626.774 156.232 627.695 155.836 628.752 155.836C629.308 155.836 629.791 155.918 630.201 156.082C630.62 156.246 631.117 156.497 631.691 156.834ZM647.523 170H642.588V168.018C641.895 168.765 641.166 169.326 640.4 169.699C639.644 170.064 638.732 170.246 637.666 170.246C635.561 170.246 634.198 169.635 633.578 168.414C632.958 167.184 632.648 165.798 632.648 164.258V156.082H637.584V163.602C637.584 164.358 637.707 165.023 637.953 165.598C638.208 166.163 638.755 166.445 639.594 166.445C640.314 166.445 640.883 166.24 641.303 165.83C641.722 165.42 642.15 164.896 642.588 164.258V156.082H647.523V170ZM664.955 164.23H655.152C655.344 165.078 655.813 165.771 656.561 166.309C657.308 166.846 658.156 167.115 659.104 167.115C660.762 167.115 662.594 166.65 664.6 165.721V168.77C663.88 169.143 663.005 169.485 661.975 169.795C660.954 170.096 659.65 170.246 658.064 170.246C656.351 170.246 654.893 169.927 653.689 169.289C652.486 168.651 651.584 167.785 650.982 166.691C650.39 165.598 650.094 164.358 650.094 162.973C650.094 161.605 650.39 160.384 650.982 159.309C651.584 158.224 652.486 157.376 653.689 156.766C654.893 156.146 656.351 155.836 658.064 155.836C659.195 155.836 660.284 156.082 661.332 156.574C662.389 157.057 663.255 157.855 663.93 158.967C664.613 160.07 664.955 161.496 664.955 163.246V164.23ZM660.334 161.797C660.334 160.904 660.111 160.193 659.664 159.664C659.227 159.126 658.593 158.857 657.764 158.857C656.943 158.857 656.278 159.131 655.768 159.678C655.266 160.215 655.016 160.922 655.016 161.797H660.334Z" fill="#5FF21A"/>
<path d="M590.156 202H585.07L575.24 191.445V202H569.58V183.051H574.652L584.455 193.551V183.051H590.156V202ZM608.395 196.23H598.592C598.783 197.078 599.253 197.771 600 198.309C600.747 198.846 601.595 199.115 602.543 199.115C604.202 199.115 606.034 198.65 608.039 197.721V200.77C607.319 201.143 606.444 201.485 605.414 201.795C604.393 202.096 603.09 202.246 601.504 202.246C599.79 202.246 598.332 201.927 597.129 201.289C595.926 200.651 595.023 199.785 594.422 198.691C593.829 197.598 593.533 196.358 593.533 194.973C593.533 193.605 593.829 192.384 594.422 191.309C595.023 190.224 595.926 189.376 597.129 188.766C598.332 188.146 599.79 187.836 601.504 187.836C602.634 187.836 603.723 188.082 604.771 188.574C605.829 189.057 606.695 189.855 607.369 190.967C608.053 192.07 608.395 193.496 608.395 195.246V196.23ZM603.773 193.797C603.773 192.904 603.55 192.193 603.104 191.664C602.666 191.126 602.033 190.857 601.203 190.857C600.383 190.857 599.717 191.131 599.207 191.678C598.706 192.215 598.455 192.922 598.455 193.797H603.773ZM624.828 191.049H622.395C623.251 191.796 623.68 192.712 623.68 193.797C623.68 194.371 623.557 194.923 623.311 195.451C623.074 195.98 622.718 196.449 622.244 196.859C621.779 197.27 621.201 197.607 620.508 197.871C619.824 198.126 619.04 198.281 618.156 198.336C617.017 198.382 616.447 198.687 616.447 199.252C616.447 199.471 616.52 199.63 616.666 199.73C616.812 199.831 617.04 199.908 617.35 199.963C617.669 200.008 618.202 200.063 618.949 200.127C619.797 200.2 620.585 200.327 621.314 200.51C622.044 200.692 622.723 201.075 623.352 201.658C623.98 202.242 624.295 203.076 624.295 204.16C624.295 205.026 624.058 205.792 623.584 206.457C623.119 207.122 622.363 207.642 621.314 208.016C620.266 208.389 618.881 208.576 617.158 208.576C614.679 208.576 612.856 208.243 611.689 207.578C610.532 206.913 609.953 206.024 609.953 204.912C609.953 204.611 610.026 204.265 610.172 203.873C610.327 203.481 610.646 203.103 611.129 202.738C611.621 202.374 612.332 202.128 613.262 202C612.934 201.882 612.651 201.654 612.414 201.316C612.177 200.97 612.059 200.61 612.059 200.236C612.059 199.753 612.223 199.275 612.551 198.801C612.888 198.327 613.43 198.021 614.178 197.885C613.139 197.611 612.241 197.096 611.484 196.34C610.728 195.583 610.35 194.604 610.35 193.4C610.35 192.489 610.523 191.691 610.869 191.008C611.225 190.324 611.712 189.768 612.332 189.34C612.952 188.911 613.672 188.597 614.492 188.396C615.312 188.187 616.21 188.082 617.186 188.082H624.828V191.049ZM619.387 193.4C619.387 192.699 619.145 192.138 618.662 191.719C618.188 191.29 617.655 191.076 617.062 191.076C616.306 191.076 615.709 191.331 615.271 191.842C614.843 192.352 614.629 192.89 614.629 193.455C614.629 193.847 614.72 194.212 614.902 194.549C615.094 194.886 615.358 195.16 615.695 195.369C616.042 195.57 616.452 195.67 616.926 195.67C617.637 195.67 618.225 195.447 618.689 195C619.154 194.553 619.387 194.02 619.387 193.4ZM620.371 204.598C620.371 203.987 620.043 203.59 619.387 203.408C618.74 203.235 618.07 203.148 617.377 203.148C616.238 203.148 615.413 203.267 614.902 203.504C614.401 203.75 614.15 204.137 614.15 204.666C614.15 205.705 615.199 206.225 617.295 206.225C618.234 206.225 618.981 206.088 619.537 205.814C620.093 205.55 620.371 205.145 620.371 204.598ZM641.453 201.303C640.733 201.585 640.068 201.813 639.457 201.986C638.846 202.16 638.113 202.246 637.256 202.246C636.445 202.246 635.88 202.105 635.561 201.822C635.242 201.531 635.014 201.18 634.877 200.77C634.348 201.198 633.76 201.553 633.113 201.836C632.466 202.109 631.618 202.246 630.57 202.246C629.559 202.246 628.738 202.073 628.109 201.727C627.49 201.371 627.052 200.929 626.797 200.4C626.551 199.863 626.428 199.311 626.428 198.746C626.428 197.889 626.642 197.183 627.07 196.627C627.508 196.062 628.091 195.602 628.82 195.246C629.549 194.891 630.516 194.521 631.719 194.139C632.402 193.92 632.917 193.756 633.264 193.646C633.619 193.528 633.883 193.437 634.057 193.373C634.23 193.309 634.412 193.227 634.604 193.127C634.604 192.452 634.467 191.924 634.193 191.541C633.92 191.158 633.327 190.967 632.416 190.967C631.34 190.967 630.342 191.204 629.422 191.678C628.501 192.152 627.658 192.762 626.893 193.51V189.736C627.503 189.299 628.164 188.943 628.875 188.67C629.586 188.387 630.329 188.178 631.104 188.041C631.878 187.904 632.662 187.836 633.455 187.836C635.469 187.836 636.982 188.228 637.994 189.012C639.015 189.786 639.525 190.857 639.525 192.225V197.598C639.525 198.108 639.571 198.491 639.662 198.746C639.762 198.992 639.94 199.115 640.195 199.115C640.505 199.115 640.924 198.983 641.453 198.719V201.303ZM634.604 198.637V195.342C633.437 195.816 632.585 196.244 632.047 196.627C631.509 197.001 631.24 197.511 631.24 198.158C631.24 198.623 631.372 198.979 631.637 199.225C631.91 199.471 632.225 199.594 632.58 199.594C632.917 199.594 633.25 199.503 633.578 199.32C633.915 199.129 634.257 198.901 634.604 198.637ZM653.99 201.193C653.48 201.439 652.773 201.676 651.871 201.904C650.978 202.132 650.121 202.246 649.301 202.246C645.755 202.246 643.982 200.514 643.982 197.051V191.5H641.754V190.639L648.357 183.912H648.918V188.082H653.621V191.5H648.918V195.957C648.918 196.477 648.95 196.896 649.014 197.215C649.077 197.534 649.255 197.803 649.547 198.021C649.848 198.231 650.299 198.336 650.9 198.336C651.684 198.336 652.714 198.008 653.99 197.352V201.193ZM660.949 184.869C660.949 185.443 660.744 185.931 660.334 186.332C659.924 186.733 659.436 186.934 658.871 186.934C658.488 186.934 658.137 186.842 657.818 186.66C657.508 186.478 657.262 186.232 657.08 185.922C656.898 185.603 656.807 185.252 656.807 184.869C656.807 184.304 657.007 183.816 657.408 183.406C657.809 182.996 658.297 182.791 658.871 182.791C659.436 182.791 659.924 182.996 660.334 183.406C660.744 183.816 660.949 184.304 660.949 184.869ZM661.346 202H656.41V188.082H661.346V202ZM679.42 188.082L673.09 202H669.453L663.26 188.082H668.551L671.436 195.369L674.635 188.082H679.42ZM694.938 196.23H685.135C685.326 197.078 685.796 197.771 686.543 198.309C687.29 198.846 688.138 199.115 689.086 199.115C690.745 199.115 692.577 198.65 694.582 197.721V200.77C693.862 201.143 692.987 201.485 691.957 201.795C690.936 202.096 689.633 202.246 688.047 202.246C686.333 202.246 684.875 201.927 683.672 201.289C682.469 200.651 681.566 199.785 680.965 198.691C680.372 197.598 680.076 196.358 680.076 194.973C680.076 193.605 680.372 192.384 680.965 191.309C681.566 190.224 682.469 189.376 683.672 188.766C684.875 188.146 686.333 187.836 688.047 187.836C689.177 187.836 690.266 188.082 691.314 188.574C692.372 189.057 693.238 189.855 693.912 190.967C694.596 192.07 694.938 193.496 694.938 195.246V196.23ZM690.316 193.797C690.316 192.904 690.093 192.193 689.646 191.664C689.209 191.126 688.576 190.857 687.746 190.857C686.926 190.857 686.26 191.131 685.75 191.678C685.249 192.215 684.998 192.922 684.998 193.797H690.316Z" fill="white"/>
<path d="M575.828 51H570.742L560.912 40.4453V51H555.252V32.0508H560.324L570.127 42.5508V32.0508H575.828V51ZM594.887 51H580.6V32.0508H594.654V35.8516H586.314V39.3242H594.271V43.1387H586.314V47.1855H594.887V51ZM616.598 49.6602C616.188 49.8151 615.837 49.9427 615.545 50.043C615.253 50.1432 614.971 50.2344 614.697 50.3164C614.433 50.3984 614.046 50.5033 613.535 50.6309C612.669 50.8314 611.803 50.9818 610.938 51.082C610.081 51.1914 609.174 51.2461 608.217 51.2461C606.294 51.2461 604.516 50.8952 602.885 50.1934C601.253 49.4915 599.945 48.4023 598.961 46.9258C597.986 45.4492 597.498 43.6354 597.498 41.4844C597.498 40.099 597.749 38.7409 598.25 37.4102C598.76 36.0703 599.535 34.9993 600.574 34.1973C601.431 33.5319 602.297 33.026 603.172 32.6797C604.056 32.3242 604.917 32.0872 605.756 31.9688C606.594 31.8503 607.52 31.791 608.531 31.791C610.199 31.791 611.576 31.9186 612.66 32.1738C613.745 32.4199 614.934 32.748 616.229 33.1582V37.6426C615.372 37.1413 614.465 36.722 613.508 36.3848C612.551 36.0475 611.357 35.8789 609.926 35.8789C608.276 35.8789 606.954 36.1934 605.961 36.8223C604.977 37.4421 604.288 38.1849 603.896 39.0508C603.514 39.9167 603.322 40.7552 603.322 41.5664C603.322 42.5234 603.546 43.4076 603.992 44.2188C604.439 45.0208 605.113 45.668 606.016 46.1602C606.918 46.6432 608.007 46.8848 609.283 46.8848C610.012 46.8848 610.787 46.7891 611.607 46.5977V44.3691H609.037V40.5547H616.598V49.6602ZM641.494 51H635.643L634.098 47.1582H625.867L624.295 51H618.443L626.824 32.0508H633.141L641.494 51ZM632.785 43.8633L630.01 36.9453L627.207 43.8633H632.785ZM659.363 36.6582H652.418V51H646.717V36.6582H639.771V32.0508H659.363V36.6582ZM668.455 51H662.74V32.0508H668.455V51ZM691.779 32.0508L683.234 51.2461H679.461L671.08 32.0508H677.027L681.361 42.9883L685.818 32.0508H691.779ZM708.664 51H694.377V32.0508H708.432V35.8516H700.092V39.3242H708.049V43.1387H700.092V47.1855H708.664V51Z" fill="white"/>
<path d="M312.582 38.0117C312.582 38.7135 312.459 39.4017 312.213 40.0762C311.976 40.7415 311.589 41.3659 311.051 41.9492C310.513 42.5234 309.784 42.9928 308.863 43.3574C307.952 43.7129 306.876 43.8906 305.637 43.8906H301.891V51H296.176V32.0508H305.637C306.876 32.0508 307.952 32.2331 308.863 32.5977C309.784 32.9622 310.513 33.4362 311.051 34.0195C311.589 34.6029 311.976 35.2363 312.213 35.9199C312.459 36.6035 312.582 37.3008 312.582 38.0117ZM306.758 38.0391C306.758 37.1367 306.489 36.5215 305.951 36.1934C305.423 35.8561 304.47 35.6875 303.094 35.6875H301.891V40.2539H303.121C304.069 40.2539 304.798 40.1947 305.309 40.0762C305.819 39.9577 306.188 39.7389 306.416 39.4199C306.644 39.1009 306.758 38.6406 306.758 38.0391ZM336.029 41.5117C336.029 43.2799 335.619 44.9069 334.799 46.3926C333.988 47.8783 332.775 49.0586 331.162 49.9336C329.549 50.8086 327.585 51.2461 325.27 51.2461C322.927 51.2461 320.945 50.7904 319.322 49.8789C317.7 48.9674 316.492 47.7689 315.699 46.2832C314.915 44.7975 314.523 43.207 314.523 41.5117C314.523 39.8073 314.915 38.2168 315.699 36.7402C316.483 35.2546 317.686 34.0605 319.309 33.1582C320.94 32.2467 322.927 31.791 325.27 31.791C327.02 31.791 328.578 32.0508 329.945 32.5703C331.322 33.0898 332.452 33.7962 333.336 34.6895C334.22 35.5736 334.89 36.6081 335.346 37.793C335.801 38.9688 336.029 40.2083 336.029 41.5117ZM330.205 41.5117C330.205 40.8008 330.1 40.1536 329.891 39.5703C329.681 38.9779 329.362 38.4674 328.934 38.0391C328.514 37.6016 327.999 37.2643 327.389 37.0273C326.778 36.7812 326.072 36.6582 325.27 36.6582C323.738 36.6582 322.535 37.1048 321.66 37.998C320.785 38.8913 320.348 40.0625 320.348 41.5117C320.348 42.9609 320.785 44.1367 321.66 45.0391C322.544 45.9323 323.747 46.3789 325.27 46.3789C326.318 46.3789 327.211 46.1738 327.949 45.7637C328.688 45.3444 329.248 44.7702 329.631 44.041C330.014 43.3027 330.205 42.4596 330.205 41.5117ZM352.846 45.4902C352.846 46.6751 352.54 47.7005 351.93 48.5664C351.328 49.4323 350.485 50.0977 349.4 50.5625C348.316 51.0182 347.072 51.2461 345.668 51.2461C345.276 51.2461 344.793 51.2188 344.219 51.1641C343.654 51.1185 342.897 50.9818 341.949 50.7539C341.01 50.526 340.031 50.1888 339.01 49.7422V45.0938C339.967 45.6862 340.906 46.1784 341.826 46.5703C342.756 46.9622 343.749 47.1582 344.807 47.1582C345.782 47.1582 346.411 46.9987 346.693 46.6797C346.985 46.3516 347.131 46.0462 347.131 45.7637C347.131 45.2533 346.885 44.8249 346.393 44.4785C345.9 44.123 345.185 43.7585 344.246 43.3848C343.207 42.9473 342.296 42.4733 341.512 41.9629C340.728 41.4434 340.085 40.7962 339.584 40.0215C339.092 39.2467 338.846 38.3307 338.846 37.2734C338.846 36.2526 339.096 35.332 339.598 34.5117C340.099 33.6823 340.865 33.0215 341.895 32.5293C342.924 32.0371 344.182 31.791 345.668 31.791C346.725 31.791 347.701 31.8958 348.594 32.1055C349.496 32.306 350.239 32.5339 350.822 32.7891C351.406 33.0443 351.807 33.2448 352.025 33.3906V37.834C351.251 37.278 350.385 36.7812 349.428 36.3438C348.48 35.9062 347.464 35.6875 346.379 35.6875C345.668 35.6875 345.153 35.8242 344.834 36.0977C344.515 36.3711 344.355 36.7083 344.355 37.1094C344.355 37.4831 344.515 37.8066 344.834 38.0801C345.153 38.3535 345.723 38.6862 346.543 39.0781C348.001 39.7617 349.168 40.377 350.043 40.9238C350.918 41.4707 351.602 42.1042 352.094 42.8242C352.595 43.5352 352.846 44.4238 352.846 45.4902ZM362.484 51H356.77V32.0508H362.484V51ZM385.439 36.6582H378.494V51H372.793V36.6582H365.848V32.0508H385.439V36.6582ZM394.531 51H388.816V32.0508H394.531V51ZM417.855 32.0508L409.311 51.2461H405.537L397.156 32.0508H403.104L407.438 42.9883L411.895 32.0508H417.855ZM434.74 51H420.453V32.0508H434.508V35.8516H426.168V39.3242H434.125V43.1387H426.168V47.1855H434.74V51Z" fill="#EF9713"/>
<path d="M351.232 155.658H344.287V170H338.586V155.658H331.641V151.051H351.232V155.658ZM365.191 156.834L363.373 161.77C362.626 161.059 361.869 160.703 361.104 160.703C360.411 160.703 359.809 160.94 359.299 161.414C358.798 161.879 358.314 162.745 357.85 164.012V170H352.928V156.082H357.85V159.445C358.16 158.616 358.706 157.809 359.49 157.025C360.274 156.232 361.195 155.836 362.252 155.836C362.808 155.836 363.291 155.918 363.701 156.082C364.12 156.246 364.617 156.497 365.191 156.834ZM381.023 170H376.088V168.018C375.395 168.765 374.666 169.326 373.9 169.699C373.144 170.064 372.232 170.246 371.166 170.246C369.061 170.246 367.698 169.635 367.078 168.414C366.458 167.184 366.148 165.798 366.148 164.258V156.082H371.084V163.602C371.084 164.358 371.207 165.023 371.453 165.598C371.708 166.163 372.255 166.445 373.094 166.445C373.814 166.445 374.383 166.24 374.803 165.83C375.222 165.42 375.65 164.896 376.088 164.258V156.082H381.023V170ZM398.455 164.23H388.652C388.844 165.078 389.313 165.771 390.061 166.309C390.808 166.846 391.656 167.115 392.604 167.115C394.262 167.115 396.094 166.65 398.1 165.721V168.77C397.38 169.143 396.505 169.485 395.475 169.795C394.454 170.096 393.15 170.246 391.564 170.246C389.851 170.246 388.393 169.927 387.189 169.289C385.986 168.651 385.084 167.785 384.482 166.691C383.89 165.598 383.594 164.358 383.594 162.973C383.594 161.605 383.89 160.384 384.482 159.309C385.084 158.224 385.986 157.376 387.189 156.766C388.393 156.146 389.851 155.836 391.564 155.836C392.695 155.836 393.784 156.082 394.832 156.574C395.889 157.057 396.755 157.855 397.43 158.967C398.113 160.07 398.455 161.496 398.455 163.246V164.23ZM393.834 161.797C393.834 160.904 393.611 160.193 393.164 159.664C392.727 159.126 392.093 158.857 391.264 158.857C390.443 158.857 389.778 159.131 389.268 159.678C388.766 160.215 388.516 160.922 388.516 161.797H393.834Z" fill="#5FF21A"/>
<path d="M327.184 189.012C327.184 189.714 327.061 190.402 326.814 191.076C326.577 191.742 326.19 192.366 325.652 192.949C325.115 193.523 324.385 193.993 323.465 194.357C322.553 194.713 321.478 194.891 320.238 194.891H316.492V202H310.777V183.051H320.238C321.478 183.051 322.553 183.233 323.465 183.598C324.385 183.962 325.115 184.436 325.652 185.02C326.19 185.603 326.577 186.236 326.814 186.92C327.061 187.604 327.184 188.301 327.184 189.012ZM321.359 189.039C321.359 188.137 321.09 187.521 320.553 187.193C320.024 186.856 319.072 186.688 317.695 186.688H316.492V191.254H317.723C318.671 191.254 319.4 191.195 319.91 191.076C320.421 190.958 320.79 190.739 321.018 190.42C321.245 190.101 321.359 189.641 321.359 189.039ZM344.096 195.027C344.096 196.413 343.795 197.648 343.193 198.732C342.592 199.817 341.689 200.674 340.486 201.303C339.292 201.932 337.834 202.246 336.111 202.246C334.389 202.246 332.926 201.932 331.723 201.303C330.529 200.674 329.631 199.817 329.029 198.732C328.437 197.648 328.141 196.413 328.141 195.027C328.141 193.979 328.305 193.027 328.633 192.17C328.97 191.313 329.476 190.557 330.15 189.9C330.834 189.235 331.673 188.725 332.666 188.369C333.66 188.014 334.808 187.836 336.111 187.836C337.424 187.836 338.581 188.018 339.584 188.383C340.596 188.738 341.43 189.24 342.086 189.887C342.751 190.534 343.253 191.29 343.59 192.156C343.927 193.022 344.096 193.979 344.096 195.027ZM338.914 195.027C338.914 193.924 338.673 193.063 338.189 192.443C337.715 191.814 337.023 191.5 336.111 191.5C335.209 191.5 334.516 191.814 334.033 192.443C333.559 193.063 333.322 193.924 333.322 195.027C333.322 196.121 333.564 196.987 334.047 197.625C334.53 198.263 335.218 198.582 336.111 198.582C337.023 198.582 337.715 198.268 338.189 197.639C338.673 197.001 338.914 196.13 338.914 195.027ZM357.549 197.939C357.549 199.215 357.079 200.255 356.141 201.057C355.211 201.85 353.826 202.246 351.984 202.246C350.954 202.246 350.038 202.155 349.236 201.973C348.434 201.781 347.559 201.512 346.611 201.166V197.666C347.441 198.14 348.161 198.5 348.771 198.746C349.382 198.992 350.052 199.115 350.781 199.115C352.012 199.115 352.627 198.778 352.627 198.104C352.627 197.876 352.536 197.675 352.354 197.502C352.18 197.32 351.87 197.119 351.424 196.9C350.986 196.673 350.398 196.404 349.66 196.094C348.749 195.693 347.974 195.155 347.336 194.48C346.698 193.806 346.379 192.981 346.379 192.006C346.379 191.313 346.589 190.648 347.008 190.01C347.436 189.372 348.079 188.852 348.936 188.451C349.792 188.041 350.827 187.836 352.039 187.836C352.331 187.836 352.7 187.859 353.146 187.904C353.602 187.941 354.172 188.046 354.855 188.219C355.548 188.392 356.204 188.638 356.824 188.957V192.361C356.533 192.188 356.286 192.042 356.086 191.924C355.895 191.805 355.635 191.673 355.307 191.527C354.979 191.382 354.591 191.254 354.145 191.145C353.707 191.026 353.256 190.967 352.791 190.967C352.226 190.967 351.839 191.076 351.629 191.295C351.419 191.514 351.314 191.732 351.314 191.951C351.314 192.179 351.424 192.393 351.643 192.594C351.861 192.785 352.349 193.027 353.105 193.318C354.199 193.738 355.074 194.171 355.73 194.617C356.387 195.055 356.852 195.538 357.125 196.066C357.408 196.595 357.549 197.219 357.549 197.939ZM365.014 184.869C365.014 185.443 364.809 185.931 364.398 186.332C363.988 186.733 363.501 186.934 362.936 186.934C362.553 186.934 362.202 186.842 361.883 186.66C361.573 186.478 361.327 186.232 361.145 185.922C360.962 185.603 360.871 185.252 360.871 184.869C360.871 184.304 361.072 183.816 361.473 183.406C361.874 182.996 362.361 182.791 362.936 182.791C363.501 182.791 363.988 182.996 364.398 183.406C364.809 183.816 365.014 184.304 365.014 184.869ZM365.41 202H360.475V188.082H365.41V202ZM379.793 201.193C379.283 201.439 378.576 201.676 377.674 201.904C376.781 202.132 375.924 202.246 375.104 202.246C371.558 202.246 369.785 200.514 369.785 197.051V191.5H367.557V190.639L374.16 183.912H374.721V188.082H379.424V191.5H374.721V195.957C374.721 196.477 374.753 196.896 374.816 197.215C374.88 197.534 375.058 197.803 375.35 198.021C375.65 198.231 376.102 198.336 376.703 198.336C377.487 198.336 378.517 198.008 379.793 197.352V201.193ZM386.752 184.869C386.752 185.443 386.547 185.931 386.137 186.332C385.727 186.733 385.239 186.934 384.674 186.934C384.291 186.934 383.94 186.842 383.621 186.66C383.311 186.478 383.065 186.232 382.883 185.922C382.701 185.603 382.609 185.252 382.609 184.869C382.609 184.304 382.81 183.816 383.211 183.406C383.612 182.996 384.1 182.791 384.674 182.791C385.239 182.791 385.727 182.996 386.137 183.406C386.547 183.816 386.752 184.304 386.752 184.869ZM387.148 202H382.213V188.082H387.148V202ZM405.223 188.082L398.893 202H395.256L389.062 188.082H394.354L397.238 195.369L400.438 188.082H405.223ZM420.74 196.23H410.938C411.129 197.078 411.598 197.771 412.346 198.309C413.093 198.846 413.941 199.115 414.889 199.115C416.548 199.115 418.38 198.65 420.385 197.721V200.77C419.665 201.143 418.79 201.485 417.76 201.795C416.739 202.096 415.436 202.246 413.85 202.246C412.136 202.246 410.678 201.927 409.475 201.289C408.271 200.651 407.369 199.785 406.768 198.691C406.175 197.598 405.879 196.358 405.879 194.973C405.879 193.605 406.175 192.384 406.768 191.309C407.369 190.224 408.271 189.376 409.475 188.766C410.678 188.146 412.136 187.836 413.85 187.836C414.98 187.836 416.069 188.082 417.117 188.574C418.174 189.057 419.04 189.855 419.715 190.967C420.398 192.07 420.74 193.496 420.74 195.246V196.23ZM416.119 193.797C416.119 192.904 415.896 192.193 415.449 191.664C415.012 191.126 414.378 190.857 413.549 190.857C412.729 190.857 412.063 191.131 411.553 191.678C411.051 192.215 410.801 192.922 410.801 193.797H416.119Z" fill="#EF9713"/>
<path d="M74.8438 171.658H67.8984V186H62.1973V171.658H55.252V167.051H74.8438V171.658ZM96.541 186H90.4023L88.9121 182.637C88.3652 181.406 87.873 180.508 87.4355 179.943C86.998 179.369 86.5697 179.005 86.1504 178.85C85.7402 178.686 85.207 178.604 84.5508 178.604H83.9082V186H78.1934V167.051H87.9141C89.4818 167.051 90.7669 167.37 91.7695 168.008C92.7721 168.646 93.4922 169.421 93.9297 170.332C94.3763 171.243 94.5996 172.109 94.5996 172.93C94.5996 173.887 94.4128 174.698 94.0391 175.363C93.6745 176.02 93.2871 176.498 92.877 176.799C92.4668 177.1 92.0065 177.387 91.4961 177.66C92.1068 178.016 92.6081 178.439 93 178.932C93.401 179.415 93.9434 180.399 94.627 181.885L96.541 186ZM88.7754 173.039C88.7754 172.164 88.4883 171.553 87.9141 171.207C87.3398 170.861 86.4056 170.688 85.1113 170.688H83.9082V175.254H85.1387C86.5332 175.254 87.4857 175.104 87.9961 174.803C88.5156 174.493 88.7754 173.905 88.7754 173.039ZM118.471 177.51C118.471 179.132 118.165 180.518 117.555 181.666C116.953 182.805 116.151 183.708 115.148 184.373C114.155 185.038 113.079 185.517 111.922 185.809C110.773 186.1 109.625 186.246 108.477 186.246C106.872 186.246 105.309 185.973 103.787 185.426C102.274 184.879 101.007 183.949 99.9863 182.637C98.9655 181.324 98.4551 179.615 98.4551 177.51V167.051H104.156V176.033C104.156 177.282 104.334 178.316 104.689 179.137C105.054 179.948 105.555 180.545 106.193 180.928C106.84 181.301 107.602 181.488 108.477 181.488C109.315 181.488 110.058 181.301 110.705 180.928C111.352 180.554 111.854 179.962 112.209 179.15C112.574 178.339 112.756 177.309 112.756 176.061V167.051H118.471V177.51ZM137.242 186H122.955V167.051H137.01V170.852H128.67V174.324H136.627V178.139H128.67V182.186H137.242V186Z" fill="#5FF21A"/>
</svg>
